# AST/ASF file generated using VICON BodyLanguage
# -----------------------------------------------
:version 1.10
:name VICON
:units
  mass 1.0
  length 0.45
  angle deg
:documentation
   .ast/.asf automatically generated from VICON data using
   VICON BodyBuilder and BodyLanguage model FoxedUp or BRILLIANT.MOD
:root
   order TX TY TZ RX RY RZ
   axis XYZ
   position 0 0 0  
   orientation 0 0 0 
:bonedata
  begin
     id 1 
     name lhipjoint
     direction 0.560651 -0.75055 0.34978 
     length 2.44936 
     axis 0 0 0  XYZ
  end
  begin
     id 2 
     name lfemur
     direction 0.34202 -0.939693 0  
     length 7.42139  
     axis 0 0 20  XYZ
    dof rx ry rz
    limits (-160.0 20.0)
           (-70.0 70.0)
           (-60.0 70.0)
  end
  begin
     id 3 
     name ltibia
     direction 0.34202 -0.939693 0   
     length 7.75674   
     axis 0 0 20   XYZ
    dof rx
    limits (-10.0 170.0)
  end
  begin
     id 4 
     name lfoot
     direction 0.0925879 -0.254383 0.962661   
     length 2.38688   
     axis -90 7.62852e-016 20   XYZ
    dof rx rz
    limits (-45.0 90.0)
           (-70.0 20.0)
  end
  begin
     id 5 
     name ltoes
     direction 1.53567e-011 -4.21973e-011 1   
     length 1.19228   
     axis -90 7.62852e-016 20   XYZ
    dof rx
    limits (-90.0 20.0)
  end
  begin
     id 6 
     name rhipjoint
     direction -0.540087 -0.762838 0.355506   
     length 2.4099  
     axis 0 0 0  XYZ 
  end
  begin
     id 7 
     name rfemur
     direction -0.34202 -0.939693 0   
     length 7.70794   
     axis 0 0 -20   XYZ
    dof rx ry rz
    limits (-160.0 20.0)
           (-70.0 70.0)
           (-70.0 60.0)
  end
  begin
     id 8 
     name rtibia
     direction -0.34202 -0.939693 0   
     length 7.66106   
     axis 0 0 -20   XYZ
    dof rx
    limits (-10.0 170.0)
 end
 begin
     id 9 
     name rfoot
     direction -0.0830975 -0.228308 0.970036   
     length 2.4989  
     axis -90 -7.62852e-016 -20   XYZ
    dof rx rz
    limits (-45.0 90.0)
           (-20.0 70.0)
  end
  begin
     id 10 
     name rtoes
     direction -1.53517e-011 -4.21842e-011 1   
     length 1.2498   
     axis -90 -7.62852e-016 -20   XYZ
    dof rx
    limits (-90.0 20.0)
  end
  begin
     id 11 
     name lowerback
     direction 0.0266356 0.99402 -0.105896   
     length 2.1545   
     axis 0 0 0   XYZ
    dof rx ry rz
    limits (-20.0 45.0)
           (-30.0 30.0)
           (-30.0 30.0)
  end
  begin
     id 12 
     name upperback
     direction 0.0130547 0.999192 0.0380027   
     length 2.1434   
     axis 0 0 0   XYZ
    dof rx ry rz
    limits (-20.0 45.0)
           (-30.0 30.0)
           (-30.0 30.0)
  end
  begin
     id 13 
     name thorax
     direction 0.000590299 0.996288 0.0860764   
     length 2.19049   
     axis 0 0 0   XYZ
    dof rx ry rz
    limits (-20.0 45.0)
           (-30.0 30.0)
           (-30.0 30.0)
  end
  begin
     id 14 
     name lowerneck
     direction -0.0432125 0.978219 0.203028   
     length 1.62441   
     axis 0 0 0   XYZ
    dof rx ry rz
    limits (-20.0 45.0)
           (-30.0 30.0)
           (-30.0 30.0)
  end
  begin
     id 15 
     name upperneck
     direction -0.0192309 0.991699 -0.127138   
     length 1.66666   
     axis 0 0 0   XYZ
    dof rx ry rz
    limits (-20.0 45.0)
           (-30.0 30.0)
           (-30.0 30.0)
  end
  begin
     id 16
     name head
     direction -0.00434499 0.997882 -0.0649107  
     length 1.67142  
     axis 0 0 0   XYZ
    dof rx ry rz
    limits (-20.0 45.0)
           (-30.0 30.0)
           (-30.0 30.0)
  end
  begin
     id 17 
     name lclavicle
     direction 0.970351 0.240904 -0.0196058  
     length 4.04862  
     axis 0 0 0   XYZ
    dof ry rz
    limits (-20.0 10.0)
           (0.0 20.0)
  end
  begin
     id 18 
     name lhumerus
     direction 1 -4.4896e-011 -1.40911e-018   
     length 5.58345   
     axis 180 -30 -90   XYZ
    dof rx ry rz
    limits (-60.0 90.0)
           (-90.0 90.0)
           (-90.0 90.0)
  end
  begin
     id 19
     name lradius
     direction 1 -4.48968e-011 5.88912e-028   
     length 3.71087   
     axis 180 -30 -90   XYZ
    dof rx
    limits (-10.0 170.0)
  end
  begin
     id 20
     name lwrist
     direction 1 -4.48955e-011 -8.83775e-028   
     length 1.85544   
     axis 5.52448e-016 90 90   XYZ
    dof ry
    limits (-180.0 0.0)
 end
  begin
     id 21 
     name lhand
     direction 1 -4.49035e-011 -1.76755e-027   
     length 0.562322   
     axis 1.12785e-015 90 90   XYZ
    dof rx rz
    limits (-90.0 90.0)
           (-45.0 45.0)
  end
  begin
     id 22 
     name lfingers
     direction 1 -4.48824e-011 -3.5351e-027   
     length 0.453359   
     axis 2.2557e-015 90 90   XYZ
    dof rx
    limits (0.0 90.0)
  end
  begin
     id 23
     name lthumb
     direction 0.707107 -6.34888e-011 0.707107   
     length 0.650935   
     axis -90 45 2.85299e-015   XYZ
    dof rx rz
    limits (-45.0 45.0)
           (-45.0 45.0)
  end
  begin
     id 24 
     name rclavicle
     direction -0.96165 0.268562 -0.0557131   
     length 4.05446  
     axis 0 0 0   XYZ 
    dof ry rz
    limits (-10.0 20.0)
           (-20.0 0.0)
  end
  begin
     id 25 
     name rhumerus
     direction -1 -4.48957e-011 -3.36329e-027  
     length 5.20357   
     axis 180 30 90   XYZ
    dof rx ry rz
    limits (-90.0 60.0)
           (-90.0 90.0)
           (-90.0 90.0)
  end
  begin
     id 26 
     name rradius
     direction -1 -4.48974e-011 4.51441e-027   
     length 3.64937   
     axis 180 30 90   XYZ
    dof rx
    limits (-10.0 170.0)
  end
  begin
     id 27 
     name rwrist
     direction -1 -4.4896e-011 -8.83775e-028   
     length 1.82468   
     axis 5.52448e-016 -90 -90   XYZ
    dof ry
    limits (-180.0 0.0)
  end
  begin
     id 28
     name rhand
     direction -1 -4.48996e-011 -1.76755e-027   
     length 0.617996   
     axis 1.12785e-015 -90 -90   XYZ
    dof rx rz
    limits (-90.0 90.0)
           (-45.0 45.0)
  end
  begin
     id 29
     name rfingers
     direction -1 -4.48957e-011 -3.5351e-027   
     length 0.498244   
     axis 2.2557e-015 -90 -90   XYZ
    dof rx
    limits (0.0 90.0)
  end
  begin
     id 30
     name rthumb
     direction -0.707107 -6.34931e-011 0.707107   
     length 0.715382   
     axis -90 -45 -2.85299e-015   XYZ
    dof rx rz
    limits (-45.0 45.0)
           (-45.0 45.0)
  end
:hierarchy
  begin
    root lhipjoint rhipjoint lowerback
    lhipjoint lfemur
    lfemur ltibia
    ltibia lfoot
    lfoot ltoes
    rhipjoint rfemur
    rfemur rtibia
    rtibia rfoot
    rfoot rtoes
    lowerback upperback
    upperback thorax
    thorax lowerneck lclavicle rclavicle
    lowerneck upperneck
    upperneck head
    lclavicle lhumerus
    lhumerus lradius
    lradius lwrist
    lwrist lhand lthumb
    lhand lfingers
    rclavicle rhumerus
    rhumerus rradius
    rradius rwrist
    rwrist rhand rthumb
    rhand rfingers
  end

#!OML:ASF H:\ManfredETheater\Project 1\Capture day 2\Session 1\Male1.ASF
:FULLY-SPECIFIED
:DEGREES
244
root 3.37497 16.1583 1.75905 -8.48933 -1.80172 -3.70537
lowerback 8.16252 0.174281 2.41539
upperback 0.654297 0.578909 3.08633
thorax -3.91047 0.270494 1.77678
lowerneck -26.6715 -0.663441 -1.24083
upperneck 22.2455 0.457773 -3.09888
head 11.7004 -0.336613 -0.877838
rclavicle 6.41081e-015 6.36111e-015
rhumerus 34.9163 -1.17631 -51.2881
rradius 55.4619
rwrist 20.2496
rhand 10.8153 -18.5766
rfingers 7.12502
rthumb 35.8992 -44.9178
lclavicle 6.41081e-015 6.36111e-015
lhumerus 26.5585 3.84477 64.3268
lradius 71.052
lwrist -19.6118
lhand 17.9972 14.042
lfingers 7.12502
lthumb 42.665 38.4053
rfemur -12.4715 -11.4357 14.545
rtibia 61.5962
rfoot -32.2622 -3.4411
rtoes -12.1436
lfemur -12.6802 8.45031 -5.86797
ltibia 60.389
lfoot -32.2376 -4.68269
ltoes -12.9105
245
root 3.37387 16.1582 1.7603 -8.48859 -1.80746 -3.72726
lowerback 8.15044 0.172018 2.42354
upperback 0.66495 0.576204 3.10022
thorax -3.89267 0.269225 1.7869
lowerneck -26.6703 -0.658362 -1.22076
upperneck 22.2199 0.46157 -3.11889
head 11.6905 -0.33555 -0.887679
rclavicle -7.55382e-015 -1.23246e-014
rhumerus 34.9321 -1.16674 -51.2915
rradius 55.453
rwrist 20.3016
rhand 10.7922 -18.5703
rfingers 7.12502
rthumb 35.8774 -44.9169
lclavicle -7.55382e-015 -1.23246e-014
lhumerus 26.5705 3.87256 64.3309
lradius 71.046
lwrist -19.616
lhand 17.9943 14.0412
lfingers 7.12502
lthumb 42.6623 38.4054
rfemur -12.4697 -11.4108 14.5842
rtibia 61.6013
rfoot -32.2727 -3.46944
rtoes -12.1317
lfemur -12.6851 8.45945 -5.83278
ltibia 60.405
lfoot -32.2408 -4.70559
ltoes -12.8462
246
root 3.37355 16.1568 1.76221 -8.50683 -1.7861 -3.71517
lowerback 8.16839 0.175216 2.41567
upperback 0.663958 0.580354 3.09352
thorax -3.90381 0.271313 1.78389
lowerneck -26.6494 -0.67056 -1.24096
upperneck 22.1996 0.443981 -3.0926
head 11.6784 -0.341143 -0.877196
rclavicle 6.90777e-015 2.38542e-015
rhumerus 34.8963 -1.18226 -51.2986
rradius 55.4423
rwrist 20.3387
rhand 10.7829 -18.5969
rfingers 7.12502
rthumb 35.8685 -44.9456
lclavicle 6.90777e-015 2.38542e-015
lhumerus 26.5707 3.8387 64.3109
lradius 71.0325
lwrist -19.6139
lhand 17.9695 14.0243
lfingers 7.12502
lthumb 42.6391 38.3965
rfemur -12.4389 -11.4095 14.565
rtibia 61.6062
rfoot -32.2952 -3.48416
rtoes -12.1057
lfemur -12.6715 8.45479 -5.84291
ltibia 60.4203
lfoot -32.2507 -4.71706
ltoes -12.8134
247
root 3.37403 16.1555 1.76268 -8.50368 -1.74856 -3.70051
lowerback 8.16603 0.163753 2.41142
upperback 0.672645 0.563977 3.08697
thorax -3.89319 0.263275 1.78129
lowerneck -26.6777 -0.673986 -1.2399
upperneck 22.1878 0.440725 -3.09822
head 11.6791 -0.343346 -0.880124
rclavicle 1.00386e-014 0
rhumerus 34.9096 -1.19715 -51.3202
rradius 55.4366
rwrist 20.3727
rhand 10.7741 -18.5177
rfingers 7.12502
rthumb 35.8602 -44.8684
lclavicle 1.00386e-014 0
lhumerus 26.5977 3.86919 64.3145
lradius 71.0304
lwrist -19.6188
lhand 18.0014 13.9916
lfingers 7.12502
lthumb 42.6689 38.3535
rfemur -12.4306 -11.4405 14.539
rtibia 61.6147
rfoot -32.2969 -3.51467
rtoes -12.2041
lfemur -12.6925 8.42657 -5.8721
ltibia 60.435
lfoot -32.2423 -4.69666
ltoes -12.8688
248
root 3.37359 16.1555 1.76463 -8.51002 -1.75005 -3.73282
lowerback 8.16323 0.172116 2.44677
upperback 0.681719 0.578136 3.09446
thorax -3.88214 0.269838 1.76756
lowerneck -26.6719 -0.675849 -1.24636
upperneck 22.1614 0.434228 -3.07876
head 11.6676 -0.343721 -0.872562
rclavicle 2.43511e-015 -2.10712e-014
rhumerus 34.8842 -1.22434 -51.3266
rradius 55.4361
rwrist 20.3595
rhand 10.762 -18.5247
rfingers 7.12502
rthumb 35.8487 -44.8782
lclavicle 2.43511e-015 -2.10712e-014
lhumerus 26.6164 3.85201 64.322
lradius 71.0483
lwrist -19.5931
lhand 17.9689 14.0504
lfingers 7.12502
lthumb 42.6385 38.4228
rfemur -12.4172 -11.4123 14.585
rtibia 61.6144
rfoot -32.3137 -3.54882
rtoes -12.1559
lfemur -12.6863 8.44506 -5.82639
ltibia 60.4432
lfoot -32.2464 -4.71471
ltoes -12.8178
249
root 3.37272 16.1545 1.76559 -8.50875 -1.72982 -3.71613
lowerback 8.16777 0.171605 2.42549
upperback 0.678215 0.575692 3.08967
thorax -3.88843 0.268912 1.77484
lowerneck -26.6925 -0.678845 -1.22696
upperneck 22.1767 0.430468 -3.10441
head 11.6774 -0.347606 -0.886343
rclavicle -1.08338e-014 -1.98785e-014
rhumerus 34.8671 -1.23464 -51.3472
rradius 55.4356
rwrist 20.3421
rhand 10.7824 -18.5389
rfingers 7.12502
rthumb 35.868 -44.8877
lclavicle -1.08338e-014 -1.98785e-014
lhumerus 26.6376 3.85815 64.3402
lradius 71.0462
lwrist -19.5678
lhand 17.9818 14.0654
lfingers 7.12502
lthumb 42.6505 38.4337
rfemur -12.4136 -11.4136 14.5712
rtibia 61.6261
rfoot -32.3265 -3.58344
rtoes -12.1854
lfemur -12.6935 8.43477 -5.8432
ltibia 60.4527
lfoot -32.2566 -4.722
ltoes -12.8275
250
root 3.37287 16.1538 1.76749 -8.5196 -1.69713 -3.69515
lowerback 8.15882 0.16707 2.40867
upperback 0.688502 0.567126 3.08537
thorax -3.87271 0.265007 1.78073
lowerneck -26.7019 -0.6829 -1.23696
upperneck 22.1779 0.428857 -3.10338
head 11.6796 -0.349158 -0.88468
rclavicle -4.67144e-015 2.94201e-014
rhumerus 34.856 -1.23802 -51.3462
rradius 55.4518
rwrist 20.3226
rhand 10.808 -18.589
rfingers 7.12502
rthumb 35.8923 -44.9319
lclavicle -4.67144e-015 2.94201e-014
lhumerus 26.6582 3.86414 64.3528
lradius 71.0472
lwrist -19.5575
lhand 17.9612 14.0278
lfingers 7.12502
lthumb 42.6313 38.4028
rfemur -12.3903 -11.4313 14.5355
rtibia 61.634
rfoot -32.3403 -3.58087
rtoes -12.1512
lfemur -12.6847 8.41529 -5.87245
ltibia 60.4583
lfoot -32.2709 -4.73698
ltoes -12.7661
251
root 3.37254 16.1529 1.76888 -8.51294 -1.68043 -3.70559
lowerback 8.16372 0.165696 2.42286
upperback 0.672501 0.567487 3.08532
thorax -3.89197 0.264839 1.77274
lowerneck -26.677 -0.682571 -1.2522
upperneck 22.1711 0.427133 -3.07696
head 11.6722 -0.347332 -0.872312
rclavicle -9.39258e-015 -9.54166e-015
rhumerus 34.8145 -1.23891 -51.3709
rradius 55.4501
rwrist 20.3195
rhand 10.8475 -18.5941
rfingers 7.12502
rthumb 35.9297 -44.9278
lclavicle -9.39258e-015 -9.54166e-015
lhumerus 26.6412 3.85227 64.3514
lradius 71.0581
lwrist -19.5763
lhand 17.974 14.0502
lfingers 7.12502
lthumb 42.6432 38.421
rfemur -12.3942 -11.4273 14.552
rtibia 61.6495
rfoot -32.3539 -3.611
rtoes -12.1979
lfemur -12.703 8.41576 -5.86006
ltibia 60.471
lfoot -32.2698 -4.75449
ltoes -12.7288
252
root 3.3721 16.1516 1.76959 -8.509 -1.67329 -3.70168
lowerback 8.14981 0.164216 2.41308
upperback 0.685334 0.563593 3.08861
thorax -3.87091 0.263218 1.78204
lowerneck -26.7103 -0.678584 -1.24118
upperneck 22.1794 0.433067 -3.08983
head 11.6817 -0.345842 -0.87825
rclavicle -1.17283e-014 -3.10104e-014
rhumerus 34.8352 -1.2481 -51.3982
rradius 55.4407
rwrist 20.3364
rhand 10.8174 -18.6042
rfingers 7.12502
rthumb 35.9012 -44.9449
lclavicle -1.17283e-014 -3.10104e-014
lhumerus 26.6659 3.8767 64.3561
lradius 71.0564
lwrist -19.6031
lhand 17.9626 14.025
lfingers 7.12502
lthumb 42.6325 38.3995
rfemur -12.4137 -11.4189 14.5556
rtibia 61.6642
rfoot -32.3479 -3.64955
rtoes -12.2396
lfemur -12.7086 8.41712 -5.86199
ltibia 60.4834
lfoot -32.2749 -4.75026
ltoes -12.748
